<?xml version="1.0" encoding="UTF-8"?>
<svg version="1.1" xmlns="http://www.w3.org/2000/svg" width="64" height="64">
<path d="M0 0 C10.56 0 21.12 0 32 0 C32.2543297 4.82712638 32.47232116 9.6307043 32.60424805 14.45922852 C32.65923506 16.09610002 32.73406381 17.7324393 32.82983398 19.36743164 C33.60200378 32.89898464 33.60200378 32.89898464 29.60791016 38.13720703 C22.63528807 44 22.63528807 44 18 44 C18 40.7 18 37.4 18 34 C12.06 34 6.12 34 0 34 C0 28.72 0 23.44 0 18 C-2.64 18 -5.28 18 -8 18 C-8 17.34 -8 16.68 -8 16 C-5.36 16 -2.72 16 0 16 C0 10.72 0 5.44 0 0 Z " fill="#4294FE" transform="translate(20,10)"/>
<path d="M0 0 C0.27401898 4.81928486 0.47241001 9.63395635 0.60424805 14.45922852 C0.65923506 16.09610002 0.73406381 17.7324393 0.82983398 19.36743164 C1.60200378 32.89898464 1.60200378 32.89898464 -2.39208984 38.13720703 C-9.36471193 44 -9.36471193 44 -14 44 C-14.29945553 39.34154687 -14.51555575 34.68881232 -14.65917969 30.02294922 C-14.71908609 28.44122704 -14.80066028 26.86015715 -14.90527344 25.28076172 C-15.72702906 12.5435496 -15.72702906 12.5435496 -12.81567383 8.2557373 C-9.68915727 4.87659655 -4.79564019 0 0 0 Z " fill="#E4EBFE" transform="translate(52,10)"/>
<path d="M0 0 C0.71285156 0.45890625 1.42570312 0.9178125 2.16015625 1.390625 C7.37254796 4.72992305 12.58843574 7.99357541 18 11 C18 14.63 18 18.26 18 22 C12.06 22 6.12 22 0 22 C0 16.72 0 11.44 0 6 C-2.64 6 -5.28 6 -8 6 C-8 5.34 -8 4.68 -8 4 C-5.36 4 -2.72 4 0 4 C0 2.68 0 1.36 0 0 Z " fill="#235EE4" transform="translate(20,22)"/>
<path d="M0 0 C10.125 3.375 10.125 3.375 14 5 C14.33203125 7.6953125 14.33203125 7.6953125 14 11 C11.69921875 13.5546875 11.69921875 13.5546875 8.6875 15.875 C7.70136719 16.65617187 6.71523438 17.43734375 5.69921875 18.2421875 C3 20 3 20 0 20 C0 13.4 0 6.8 0 0 Z " fill="#C6D2ED" transform="translate(38,34)"/>
<path d="M0 0 C5.875 3.75 5.875 3.75 7 6 C2.05 6 -2.9 6 -8 6 C-8 5.34 -8 4.68 -8 4 C-5.36 4 -2.72 4 0 4 C0 2.68 0 1.36 0 0 Z " fill="#1B48D4" transform="translate(20,22)"/>
<path d="M0 0 C2.62187494 1.04874998 3.79371361 1.64931313 5.25 4.125 C5.4975 4.74375 5.745 5.3625 6 6 C5.01 6.66 4.02 7.32 3 8 C1.35 6.68 -0.3 5.36 -2 4 C-1.01 3.67 -0.02 3.34 1 3 C0.67 2.01 0.34 1.02 0 0 Z " fill="#376FFA" transform="translate(28,22)"/>
</svg>
